<?xml version="1.0" encoding="UTF-8"?>
<svg id="Layer_2" data-name="Layer 2" xmlns="http://www.w3.org/2000/svg" viewBox="0 0 16 16.18">
  <defs>
    <style>
      .cls-1 {
        fill: #2aa6ff;
      }
    </style>
  </defs>
  <g id="Layer_1-2" data-name="Layer 1">
    <g>
      <path class="cls-1" d="M12.38,9.12H3.64c-.33,0-.6.27-.6.6s.27.6.6.6h8.75c.33,0,.6-.27.6-.6s-.27-.6-.6-.6Z"/>
      <path class="cls-1" d="M9.3,11.86H3.63c-.33,0-.6.27-.6.6h0c0,.33.27.6.6.6h5.67c.33,0,.6-.27.6-.6s-.27-.6-.6-.6Z"/>
      <path class="cls-1" d="M13.15,1.48h-1.16v-.89c0-.33-.27-.6-.6-.6h0c-.33,0-.6.27-.6.6v.89h-5.23v-.89c0-.33-.27-.6-.6-.6h0c-.33,0-.6.27-.6.6v.89h-1.54C1.28,1.48,0,2.76,0,4.33v9c0,1.57,1.28,2.85,2.85,2.85h10.3c1.57,0,2.85-1.28,2.85-2.85V4.33c0-1.57-1.28-2.85-2.85-2.85ZM2.85,2.54h1.54v1.32c0,.33.27.6.6.6h0c.33,0,.6-.27.6-.6v-1.32h5.23v1.32c0,.33.27.6.6.6h0c.33,0,.6-.27.6-.6v-1.32h1.16c.99,0,1.79.8,1.79,1.79v1.58H1.06v-1.58c0-.99.8-1.79,1.79-1.79ZM13.15,15.12H2.85c-.99,0-1.79-.8-1.79-1.79v-6.23h13.88v6.23c0,.99-.8,1.79-1.79,1.79Z"/>
    </g>
  </g>
</svg>