<svg width="30" height="30" viewBox="0 0 30 30" fill="none" xmlns="http://www.w3.org/2000/svg">
<path d="M29.1667 27.6412L21.0194 19.494C22.9773 17.1436 23.9536 14.1288 23.7452 11.0769C23.5369 8.02504 22.16 5.17094 19.901 3.10837C17.6419 1.04581 14.6746 -0.0664179 11.6164 0.00307051C8.55819 0.0725589 5.6445 1.31841 3.48145 3.48145C1.31841 5.6445 0.0725589 8.55819 0.00307051 11.6164C-0.0664179 14.6746 1.04581 17.6419 3.10837 19.901C5.17094 22.16 8.02504 23.5369 11.0769 23.7452C14.1288 23.9536 17.1436 22.9773 19.494 21.0194L27.6412 29.1667L29.1667 27.6412ZM2.19621 11.9056C2.19621 9.98525 2.76566 8.10804 3.83254 6.51134C4.89942 4.91465 6.41581 3.67017 8.18996 2.9353C9.96412 2.20042 11.9163 2.00814 13.7998 2.38278C15.6832 2.75742 17.4133 3.68214 18.7711 5.04002C20.129 6.3979 21.0537 8.12794 21.4284 10.0114C21.803 11.8948 21.6107 13.847 20.8759 15.6212C20.141 17.3953 18.8965 18.9117 17.2998 19.9786C15.7031 21.0455 13.8259 21.6149 11.9056 21.6149C9.33137 21.6121 6.86341 20.5882 5.04317 18.768C3.22293 16.9477 2.19907 14.4798 2.19621 11.9056Z" fill="white"/>
</svg>
