<svg width="192" height="38" viewBox="0 0 192 38" fill="none" xmlns="http://www.w3.org/2000/svg">
<path d="M117.483 9.45573V5.4346H123.6V33.7524H117.483V29.6747C115.161 32.9029 111.876 34.4887 107.572 34.4887C103.664 34.4887 100.379 33.0728 97.6042 30.1844C94.8291 27.296 93.4698 23.7279 93.4698 19.5935C93.4698 15.4025 94.8291 11.8911 97.6042 9.00265C100.379 6.11423 103.664 4.69834 107.572 4.69834C111.876 4.69834 115.161 6.28414 117.483 9.45573ZM102.135 26.1066C103.834 27.8057 105.986 28.6552 108.535 28.6552C111.084 28.6552 113.236 27.8057 114.935 26.1066C116.634 24.3509 117.483 22.1988 117.483 19.5935C117.483 16.9883 116.634 14.8361 114.935 13.1371C113.236 11.3813 111.084 10.5318 108.535 10.5318C105.986 10.5318 103.834 11.3813 102.135 13.1371C100.436 14.8361 99.5865 16.9883 99.5865 19.5935C99.5865 22.1988 100.436 24.3509 102.135 26.1066ZM144.095 34.4887C139.848 34.4887 136.28 33.0728 133.391 30.1844C130.56 27.296 129.144 23.7846 129.144 19.5935C129.144 15.3458 130.56 11.8344 133.391 9.00265C136.28 6.11423 139.848 4.69834 144.095 4.69834C149.589 4.69834 154.46 7.53012 156.725 12.0043L151.458 15.0627C150.156 12.3442 147.437 10.7017 144.039 10.7017C141.547 10.7017 139.451 11.5513 137.752 13.2503C136.11 14.9494 135.26 17.0449 135.26 19.5935C135.26 22.1421 136.11 24.2376 137.752 25.9367C139.451 27.6358 141.547 28.4853 144.039 28.4853C147.38 28.4853 150.212 26.7863 151.571 24.1244L156.839 27.1261C154.403 31.6569 149.589 34.4887 144.095 34.4887ZM188.781 22.1988H166.24C167.146 26.5031 170.601 28.8818 175.301 28.8818C178.53 28.8818 180.965 27.6924 182.607 25.3704L187.648 28.3154C184.873 32.4498 180.738 34.4887 175.245 34.4887C170.657 34.4887 166.919 33.0728 164.087 30.2977C161.256 27.4659 159.84 23.8978 159.84 19.5935C159.84 15.3458 161.256 11.8344 164.031 9.00265C166.806 6.11423 170.431 4.69834 174.792 4.69834C178.926 4.69834 182.324 6.17086 184.986 9.05928C187.648 11.9477 189.007 15.5158 189.007 19.6502C189.007 20.2731 188.951 21.1227 188.781 22.1988ZM166.183 17.2148H182.834C181.984 12.6273 178.756 10.2486 174.735 10.2486C170.204 10.2486 167.033 12.9105 166.183 17.2148Z" fill="#2AA6FF"/>
<path d="M49.9375 23.9759L46.7075 25.8409C45.0601 24.6247 43.9743 22.6908 43.918 20.5024L49.9375 23.9759Z" fill="#2AA6FF"/>
<path d="M53.5435 22.8502V26.6074C52.6979 26.9787 51.7645 27.1853 50.7832 27.1853C49.5889 27.1853 48.4656 26.8786 47.4863 26.3425L50.7895 24.4378L53.5435 22.8481V22.8502Z" fill="#2AA6FF"/>
<path d="M57.6156 21.0817C57.3776 23.2346 56.1374 25.0913 54.373 26.174V19.2104L57.6156 21.0817Z" fill="#2AA6FF"/>
<path d="M57.6519 20.1511L54.3634 18.2547L51.6094 16.6651L54.852 14.7959C56.5077 16.0142 57.5976 17.9564 57.6519 20.1511Z" fill="#2AA6FF"/>
<path d="M54.0664 14.2931L48.0469 17.7665V14.0261C48.8862 13.6589 49.8133 13.4565 50.7863 13.4565C51.9743 13.4565 53.0914 13.759 54.0685 14.2931H54.0664Z" fill="#2AA6FF"/>
<path d="M47.2206 14.4575V18.2522H47.2165V21.4545L43.9551 19.5728C44.191 17.4053 45.4417 15.5381 47.2206 14.4575Z" fill="#2AA6FF"/>
<path d="M89.4377 17.5605C89.4205 17.567 89.4054 17.5734 89.3881 17.5799C88.1733 18.0456 86.7772 17.5626 86.1601 16.4179C85.9271 15.9845 85.6595 15.5728 85.3661 15.1825C83.6161 12.8736 80.8456 11.3838 77.7233 11.3838C74.0033 11.3838 70.7753 13.5031 69.1894 16.6011L69.0858 16.8081L64.6063 25.7357V25.7421C64.4315 26.1388 64.2568 26.5333 64.0841 26.93C61.607 31.9619 56.368 35.3919 50.3414 35.2453C42.3987 35.0513 35.9492 28.5448 35.824 20.6111C35.6967 12.285 42.4095 5.49609 50.7125 5.49609C55.9559 5.49609 60.567 8.2039 63.221 12.2979L60.1225 18.5565C59.2745 14.1369 55.3841 10.7996 50.7125 10.7996C45.2966 10.7996 40.9293 15.2903 41.1364 20.7491C41.3242 25.6645 45.3009 29.6896 50.2184 29.9353C54.0506 30.1272 57.421 28.0683 59.1235 24.966L59.1386 24.9358C59.2572 24.7202 59.3651 24.4982 59.4665 24.2718L64.2999 14.5077L64.3517 14.4021V14.3978C66.7813 9.47157 71.8542 6.08034 77.7211 6.08034C82.7703 6.08034 87.2347 8.59196 89.9275 12.4338C90.2447 12.8865 90.536 13.3565 90.8036 13.8437C91.5674 15.2407 90.9266 16.9913 89.4377 17.5605Z" fill="#2AA6FF"/>
<path d="M73.874 32.2269C73.248 33.6877 71.48 34.2594 70.1132 33.4486C69.6386 33.168 69.1808 32.8611 68.7418 32.5301L68.7396 32.5301C67.4272 31.5435 66.2827 30.3439 65.359 28.9799L68.3206 22.6522C68.783 24.8243 69.9837 26.7127 71.6366 28.0627C72.019 28.3734 72.4245 28.6556 72.8509 28.9049C73.977 29.5636 74.4075 30.9773 73.8944 32.1769L73.8739 32.2248L73.874 32.2269Z" fill="#2AA6FF"/>
<path d="M2.98511 4.1489H13.9874C16.8019 4.1489 19.1473 5.08708 21.0237 6.96343C22.9427 8.83979 23.8809 11.1852 23.8809 13.9571C23.8809 16.729 22.9427 19.0318 21.0237 20.9508C19.1473 22.8272 16.8019 23.7653 13.9874 23.7653H7.88922V34H2.98511V4.1489ZM7.88922 19.1597H13.9874C16.8872 19.1597 18.9768 16.9849 18.9768 13.9571C18.9768 10.9294 16.8872 8.7545 13.9874 8.7545H7.88922V19.1597ZM32.1472 9.35152C30.9958 10.4603 29.2901 10.4603 28.096 9.35152C26.9873 8.15748 26.9873 6.4517 28.096 5.3003C29.2474 4.1489 31.0385 4.1489 32.1899 5.3003C33.2986 6.4517 33.2986 8.15748 32.1472 9.35152ZM32.4457 34H27.8401V12.6778H32.4457V34Z" fill="#2AA6FF"/>
</svg>
